<?xml version="1.0" standalone="no"?>
<!DOCTYPE svg PUBLIC "-//W3C//DTD SVG 20010904//EN"
 "http://www.w3.org/TR/2001/REC-SVG-20010904/DTD/svg10.dtd">
<svg version="1.0" xmlns="http://www.w3.org/2000/svg"
 width="11811.000000pt" height="4381.000000pt" viewBox="0 0 11811.000000 4381.000000"
 preserveAspectRatio="xMidYMid meet">

<g transform="translate(0.000000,4381.000000) scale(0.100000,-0.100000)"
fill="#000000" stroke="none">
<path d="M3640 22353 c-1866 -8821 -3396 -16050 -3398 -16066 l-4 -27 3308 0
3309 0 1304 6133 c716 3372 2252 10597 3412 16055 1160 5458 2109 9927 2109
9932 0 7 -1215 10 -3323 10 l-3323 0 -3394 -16037z"/>
<path d="M111530 38388 c0 -2 -1538 -7231 -3418 -16066 l-3418 -16062 3165 2
3165 3 74 345 c75 351 3267 15323 5527 25921 685 3210 1245 5842 1245 5848 0
8 -842 11 -3170 11 -1743 0 -3170 -1 -3170 -2z"/>
<path d="M71920 36425 c0 -3 -299 -1450 -665 -3216 -366 -1766 -665 -3212
-665 -3215 0 -2 -767 -4 -1705 -4 -938 0 -1705 -4 -1705 -8 0 -5 -209 -1005
-465 -2223 -256 -1217 -465 -2219 -465 -2226 0 -11 326 -13 1676 -13 l1677 0
-6 -32 c-3 -18 -620 -2933 -1372 -6478 -1355 -6395 -1464 -6912 -1550 -7375
-97 -526 -177 -1066 -221 -1505 -25 -245 -30 -823 -9 -1040 75 -789 337 -1399
805 -1871 352 -355 784 -605 1385 -802 679 -222 1436 -343 2540 -407 303 -18
1187 -23 1750 -11 1427 31 2820 72 2830 83 2 2 1000 4639 1021 4745 l6 32
-1008 4 c-1069 5 -1151 8 -1509 57 -676 94 -1038 299 -1150 651 -30 97 -49
236 -41 303 4 28 23 122 42 208 19 87 39 199 44 250 6 51 630 3038 1388 6638
l1378 6545 1996 3 1996 2 5 23 c4 12 213 1010 467 2217 253 1207 463 2203 466
2213 5 16 -93 17 -1971 17 l-1975 0 5 23 c25 106 1345 6390 1345 6402 0 13
-341 15 -3170 15 -1743 0 -3170 -2 -3170 -5z"/>
<path d="M53750 30834 c-1132 -36 -2051 -144 -2990 -350 -2069 -456 -3866
-1388 -5274 -2737 -806 -772 -1460 -1696 -1922 -2714 -241 -531 -426 -1070
-575 -1668 -46 -184 -149 -676 -164 -787 l-7 -48 2991 0 c1645 0 2991 1 2991
3 0 1 14 80 30 174 111 654 352 1211 726 1678 110 137 345 374 485 488 836
681 1919 1006 3354 1007 857 0 1565 -90 2077 -266 173 -59 447 -195 567 -281
292 -209 490 -500 575 -843 46 -182 51 -234 51 -500 0 -285 -12 -385 -69 -614
-302 -1193 -1527 -1991 -3661 -2386 -274 -50 -537 -90 -925 -140 -987 -126
-2434 -340 -3080 -456 -2641 -472 -4691 -1298 -6170 -2488 -1808 -1454 -2820
-3580 -3030 -6361 -36 -475 -51 -1196 -31 -1505 58 -921 292 -1665 738 -2344
170 -259 336 -461 572 -696 855 -850 2021 -1368 3456 -1534 311 -36 513 -48
941 -53 470 -6 769 4 1174 38 2323 194 4390 1061 6055 2538 284 252 763 742
999 1023 44 53 82 95 84 93 2 -1 -6 -67 -17 -146 -23 -166 -62 -505 -87 -759
-24 -236 -24 -573 -1 -740 47 -335 132 -778 187 -971 21 -75 41 -157 45 -182
l7 -47 3287 0 3287 0 118 532 118 533 -33 25 c-358 270 -560 504 -659 763
-117 300 -141 754 -75 1362 23 204 79 592 130 890 25 151 655 3144 1500 7125
801 3776 1469 6942 1485 7035 35 206 66 472 81 700 15 227 6 817 -15 985 -86
674 -290 1236 -639 1760 -459 688 -1149 1262 -2076 1725 -1335 667 -3007 1031
-5171 1125 -238 10 -1246 20 -1440 14z m1800 -12972 c0 -17 -512 -2352 -541
-2467 -413 -1644 -1244 -2931 -2511 -3885 -733 -553 -1558 -922 -2468 -1104
-711 -143 -1543 -170 -2125 -70 -910 156 -1541 630 -1770 1328 -115 351 -135
791 -59 1316 86 596 316 1162 662 1630 201 272 488 560 769 773 411 311 878
552 1453 748 279 96 742 199 2450 545 777 158 1086 226 1525 335 913 228 1750
498 2385 769 206 88 230 97 230 82z"/>
<path d="M93825 30830 c-2808 -112 -5249 -1010 -7375 -2714 -640 -513 -1297
-1154 -1870 -1826 -1412 -1654 -2503 -3692 -3283 -6135 -577 -1807 -882 -3451
-957 -5155 -13 -297 -13 -1044 0 -1300 66 -1321 301 -2423 737 -3453 97 -231
323 -683 449 -897 583 -998 1393 -1862 2339 -2495 1620 -1085 3676 -1539 6200
-1370 2399 161 4603 909 6600 2238 1273 848 2357 1873 3252 3077 478 643 872
1282 1247 2025 117 232 296 606 296 620 0 3 -1426 5 -3170 5 l-3169 0 -53 -77
c-585 -869 -1239 -1527 -1912 -1922 -572 -336 -1268 -543 -2076 -618 -262 -24
-848 -24 -1090 0 -573 58 -989 168 -1405 372 -415 203 -747 477 -1018 838
-580 774 -814 1937 -681 3392 25 278 106 890 131 993 l5 22 7647 0 7646 0 108
488 c507 2301 723 3595 809 4852 17 245 17 1153 0 1405 -74 1119 -263 2014
-607 2881 -647 1629 -1834 2923 -3430 3740 -1156 591 -2462 913 -4080 1004
-249 14 -1036 20 -1290 10z m85 -5334 c892 -100 1563 -392 2073 -900 458 -456
735 -1044 837 -1774 35 -251 43 -418 37 -771 -6 -397 -24 -610 -97 -1203 -17
-131 -30 -240 -30 -243 0 -3 -1983 -5 -4406 -5 -3521 0 -4405 3 -4402 13 3 6
31 95 63 197 596 1910 1556 3289 2813 4043 623 374 1331 594 2112 656 181 15
829 6 1000 -13z"/>
<path d="M30985 30603 c-431 -25 -683 -48 -985 -89 -1114 -150 -2157 -461
-3175 -947 -1172 -559 -2274 -1336 -3375 -2380 -102 -96 -186 -174 -187 -173
-1 1 137 667 307 1481 171 813 310 1482 310 1487 0 4 -1398 8 -3107 8 l-3108
0 -607 -2853 c-334 -1568 -999 -4688 -1477 -6932 -478 -2244 -1340 -6289
-1916 -8990 -575 -2700 -1049 -4920 -1052 -4933 l-5 -22 3173 2 3173 3 1497
7060 c823 3883 1520 7154 1549 7269 339 1360 1018 2471 2025 3311 612 511
1413 926 2210 1144 573 157 1130 235 1785 248 1401 28 2354 -335 2860 -1088
201 -299 325 -655 387 -1114 25 -184 25 -774 0 -1030 -48 -492 -125 -990 -213
-1361 -13 -55 -475 -2236 -1028 -4845 -553 -2609 -1230 -5808 -1506 -7109
-276 -1301 -507 -2393 -514 -2428 l-14 -62 3151 2 3150 3 1712 8100 c942 4455
1740 8220 1773 8368 335 1459 423 2528 286 3476 -167 1165 -717 2157 -1607
2902 -1080 905 -2485 1390 -4312 1489 -167 9 -1025 11 -1160 3z"/>
</g>
</svg>
